# xmcd
#
# Track frame offsets:
#	150
#	15733
#	36604
#	52929
#	70992
#	87779
#	107739
#	129953
#	144944
#	163750
#	180420
#	196086
#	209100
#	233561
#
# Disc length: 3207 seconds
#
# Revision: 1
# Processed by: cddbd v1.5.2PL0 Copyright (c) Steve Scherf et al.
# Submitted via: audiograbber 1.83.01
#
DISCID=bb0c850e
DTITLE=Ruston Kelly - Dying Star
DYEAR=2018
DGENRE=Country
TTITLE0=Cover My Tracks
TTITLE1=Mockingbird
TTITLE2=Son of a Highway Daughter
TTITLE3=Paratrooper's Battlecry
TTITLE4=Faceplant
TTITLE5=Blackout
TTITLE6=Big Brown Bus
TTITLE7=Mercury
TTITLE8=Anchors
TTITLE9=Just for the Record
TTITLE10=Trying to Let Her
TTITLE11=Jericho
TTITLE12=Dying Star
TTITLE13=Brightly Burst Into the Air
EXTD=
EXTT0=
EXTT1=
EXTT2=
EXTT3=
EXTT4=
EXTT5=
EXTT6=
EXTT7=
EXTT8=
EXTT9=
EXTT10=
EXTT11=
EXTT12=
EXTT13=
PLAYORDER=
